<svg xmlns="http://www.w3.org/2000/svg" viewBox="0 0 17 19">
    <defs>
        <style>.cls-1{fill:#999;}</style>
    </defs>
    <title>d20</title>
    <g id="Layer_2" data-name="Layer 2">
        <g id="icons">
            <path id="d20" class="cls-1" d="M17,5.46a.51.51,0,0,0-.06-.21h0s0,0-.06-.07a.52.52,0,0,0-.1-.11l-8-5h0a.42.42,0,0,0-.12,0L8.5,0,8.38,0l-.12,0h0l-8,5a.52.52,0,0,0-.1.11s0,0-.06.07h0A.51.51,0,0,0,0,5.46s0,0,0,0H0v8a.28.28,0,0,0,0,.13.15.15,0,0,0,0,.09.55.55,0,0,0,.17.2l8,5h0l0,0A.43.43,0,0,0,8.5,19h0a.43.43,0,0,0,.22-.06l0,0h0l8-5a.55.55,0,0,0,.17-.2.15.15,0,0,0,0-.09.28.28,0,0,0,0-.13v-8h0S17,5.47,17,5.46ZM8.5,12H5.36L8.5,6.5,11.64,12Zm0,1h3.07L8.5,17.6,5.43,13Zm.86-7h6.28L12.5,11.49ZM9,5V1.4L14.76,5ZM4.5,11.49,1.36,6H7.64Zm-.76.68L1,12.86V7.38Zm.54.9L6.8,16.84l-1.21-.75L1.76,13.7Zm5.92,3.77,2.52-3.77,2.52.63-3.83,2.39ZM16,7.38v5.48l-2.74-.69ZM8,5H2.24L8,1.4Z"/>
        </g>
    </g>
</svg>